HIERARCHY
ROOT Hips
{
	OFFSET 0.000000 71.427986 0.000000
	CHANNELS 6 Xposition Yposition Zposition Xrotation Yrotation Zrotation
	JOINT Pelvis
	{
		OFFSET 0.000000 0.000000 0.000000
		CHANNELS 3 Xrotation Yrotation Zrotation
		JOINT LeftUpLeg
		{
			OFFSET 6.797100 -2.508499 -1.318700
			CHANNELS 3 Xrotation Yrotation Zrotation
			JOINT LeftLeg
			{
				OFFSET 0.069008 -29.241863 0.690200
				CHANNELS 3 Xrotation Yrotation Zrotation
				JOINT LeftFoot
				{
					OFFSET -0.069008 -29.568123 -0.266800
					CHANNELS 3 Xrotation Yrotation Zrotation
					JOINT LeftToeBase
					{
						OFFSET 3.145500 -8.631000 16.059900
						CHANNELS 3 Xrotation Yrotation Zrotation
						End Site
						{
							OFFSET 0.000000 18.501587 0.000000
						}
					}
				}
			}
			JOINT Left_ShortSleeve
			{
				OFFSET 0.265923 -10.480953 1.153800
				CHANNELS 3 Xrotation Yrotation Zrotation
				End Site
				{
					OFFSET 1.725763 19.823879 0.000000
				}
			}
		}
		JOINT RightUpLeg
		{
			OFFSET -6.797100 -2.508499 -1.318700
			CHANNELS 3 Xrotation Yrotation Zrotation
			JOINT RightLeg
			{
				OFFSET -0.082453 -29.241932 0.688000
				CHANNELS 3 Xrotation Yrotation Zrotation
				JOINT RightFoot
				{
					OFFSET 0.082453 -29.568058 -0.264600
					CHANNELS 3 Xrotation Yrotation Zrotation
					JOINT RightToeBase
					{
						OFFSET -3.115300 -8.682800 16.113400
						CHANNELS 3 Xrotation Yrotation Zrotation
						End Site
						{
							OFFSET 0.000000 18.567114 0.000000
						}
					}
				}
			}
			JOINT Right_ShortSleeve
			{
				OFFSET -0.265923 -10.480953 1.153800
				CHANNELS 3 Xrotation Yrotation Zrotation
				End Site
				{
					OFFSET -1.725766 19.823910 0.000000
				}
			}
		}
	}
	JOINT Spine
	{
		OFFSET 0.000000 13.368103 0.470500
		CHANNELS 3 Xrotation Yrotation Zrotation
		JOINT Spine1
		{
			OFFSET 0.147000 13.837402 0.538800
			CHANNELS 3 Xrotation Yrotation Zrotation
			JOINT Spine2
			{
				OFFSET 0.168000 16.242897 -1.435500
				CHANNELS 3 Xrotation Yrotation Zrotation
				JOINT Neck
				{
					OFFSET 0.217200 18.631500 -1.679100
					CHANNELS 3 Xrotation Yrotation Zrotation
					JOINT Head
					{
						OFFSET 0.000000 6.599396 1.385900
						CHANNELS 3 Xrotation Yrotation Zrotation
						JOINT Hat
						{
							OFFSET -0.532200 27.220596 -10.096100
							CHANNELS 3 Xrotation Yrotation Zrotation
							End Site
							{
								OFFSET 0.000000 22.029861 0.000000
							}
						}
						JOINT HairD
						{
							OFFSET -10.777400 17.437393 -1.325900
							CHANNELS 3 Xrotation Yrotation Zrotation
							JOINT HairD1
							{
								OFFSET -3.290299 -11.051193 1.062200
								CHANNELS 3 Xrotation Yrotation Zrotation
								End Site
								{
									OFFSET 0.000000 11.579437 0.000000
								}
							}
						}
						JOINT HairB
						{
							OFFSET -10.777400 17.437393 1.467900
							CHANNELS 3 Xrotation Yrotation Zrotation
							JOINT HairB1
							{
								OFFSET -1.561200 -12.956299 3.590200
								CHANNELS 3 Xrotation Yrotation Zrotation
								End Site
								{
									OFFSET 0.000000 13.534866 0.000000
								}
							}
						}
						JOINT HairA
						{
							OFFSET 9.713100 17.437393 1.467900
							CHANNELS 3 Xrotation Yrotation Zrotation
							JOINT HairA1
							{
								OFFSET 1.561200 -12.956299 3.590200
								CHANNELS 3 Xrotation Yrotation Zrotation
								End Site
								{
									OFFSET 0.000000 13.534866 0.000000
								}
							}
						}
						JOINT HairC
						{
							OFFSET 9.713100 17.437393 -1.325900
							CHANNELS 3 Xrotation Yrotation Zrotation
							JOINT HairC1
							{
								OFFSET 3.290300 -11.051193 1.062200
								CHANNELS 3 Xrotation Yrotation Zrotation
								End Site
								{
									OFFSET 0.000000 11.579437 0.000000
								}
							}
						}
					}
				}
				JOINT LeftShoulder
				{
					OFFSET 5.101800 15.108002 -2.763700
					CHANNELS 3 Xrotation Yrotation Zrotation
					JOINT LeftArm
					{
						OFFSET 9.825497 2.506317 -1.597400
						CHANNELS 3 Xrotation Yrotation Zrotation
						JOINT LeftForeArm
						{
							OFFSET 21.966244 0.000000 0.000000
							CHANNELS 3 Xrotation Yrotation Zrotation
							JOINT LeftHand
							{
								OFFSET 33.879036 0.000000 0.000000
								CHANNELS 3 Xrotation Yrotation Zrotation
								JOINT LeftHandThumb1
								{
									OFFSET 6.715286 -2.359680 3.363841
									CHANNELS 3 Xrotation Yrotation Zrotation
									JOINT LeftHandThumb2
									{
										OFFSET 2.507072 -1.447464 1.447461
										CHANNELS 3 Xrotation Yrotation Zrotation
										JOINT LeftHandThumb3
										{
											OFFSET 2.898338 -1.673355 1.673357
											CHANNELS 3 Xrotation Yrotation Zrotation
											End Site
											{
												OFFSET -0.295959 3.727692 -0.131651
											}
										}
									}
								}
								JOINT LeftHandIndex1
								{
									OFFSET 14.190811 -0.254547 3.840278
									CHANNELS 3 Xrotation Yrotation Zrotation
									JOINT LeftHandIndex2
									{
										OFFSET 3.551727 0.000000 -0.000000
										CHANNELS 3 Xrotation Yrotation Zrotation
										JOINT LeftHandIndex3
										{
											OFFSET 2.894196 0.000000 0.000000
											CHANNELS 3 Xrotation Yrotation Zrotation
											End Site
											{
												OFFSET -1.000603 2.690872 0.366626
											}
										}
									}
								}
								JOINT LeftHandMiddle1
								{
									OFFSET 13.776489 0.000000 0.000000
									CHANNELS 3 Xrotation Yrotation Zrotation
									JOINT LeftHandMiddle2
									{
										OFFSET 3.438232 0.000000 0.000000
										CHANNELS 3 Xrotation Yrotation Zrotation
										JOINT LeftHandMiddle3
										{
											OFFSET 3.691551 0.000000 0.000000
											CHANNELS 3 Xrotation Yrotation Zrotation
											End Site
											{
												OFFSET -1.082298 3.499527 0.457670
											}
										}
									}
								}
								JOINT LeftHandRing1
								{
									OFFSET 13.966164 -0.268127 -3.067488
									CHANNELS 3 Xrotation Yrotation Zrotation
									JOINT LeftHandRing2
									{
										OFFSET 3.162567 0.000000 0.000000
										CHANNELS 3 Xrotation Yrotation Zrotation
										JOINT LeftHandRing3
										{
											OFFSET 3.324348 0.000000 0.000000
											CHANNELS 3 Xrotation Yrotation Zrotation
											End Site
											{
												OFFSET -0.861900 3.184998 0.405154
											}
										}
									}
								}
								JOINT LeftHandPinky1
								{
									OFFSET 13.131393 -0.168503 -5.746925
									CHANNELS 3 Xrotation Yrotation Zrotation
									JOINT LeftHandPinky2
									{
										OFFSET 2.849182 0.000000 0.000000
										CHANNELS 3 Xrotation Yrotation Zrotation
										JOINT LeftHandPinky3
										{
											OFFSET 2.805038 0.000000 0.000000
											CHANNELS 3 Xrotation Yrotation Zrotation
											End Site
											{
												OFFSET -0.882500 2.642609 0.325652
											}
										}
									}
								}
							}
							JOINT Left_Sleeve
							{
								OFFSET 6.592125 -0.646545 0.805568
								CHANNELS 3 Xrotation Yrotation Zrotation
								End Site
								{
									OFFSET -0.000179 20.275787 -0.000000
								}
							}
						}
					}
				}
				JOINT RightShoulder
				{
					OFFSET -5.731700 15.108002 -2.763700
					CHANNELS 3 Xrotation Yrotation Zrotation
					JOINT RightArm
					{
						OFFSET -9.825497 2.506317 -1.597400
						CHANNELS 3 Xrotation Yrotation Zrotation
						JOINT RightForeArm
						{
							OFFSET -21.966242 0.000000 0.000000
							CHANNELS 3 Xrotation Yrotation Zrotation
							JOINT RightHand
							{
								OFFSET -33.879032 0.000000 0.000000
								CHANNELS 3 Xrotation Yrotation Zrotation
								JOINT RightHandThumb1
								{
									OFFSET -6.715286 -2.359680 3.363841
									CHANNELS 3 Xrotation Yrotation Zrotation
									JOINT RightHandThumb2
									{
										OFFSET -2.507072 -1.447464 1.447461
										CHANNELS 3 Xrotation Yrotation Zrotation
										JOINT RightHandThumb3
										{
											OFFSET -2.898338 -1.673355 1.673357
											CHANNELS 3 Xrotation Yrotation Zrotation
											End Site
											{
												OFFSET 0.295959 3.727692 -0.131651
											}
										}
									}
								}
								JOINT RightHandIndex1
								{
									OFFSET -14.190811 -0.254547 3.840278
									CHANNELS 3 Xrotation Yrotation Zrotation
									JOINT RightHandIndex2
									{
										OFFSET -3.551727 0.000000 -0.000000
										CHANNELS 3 Xrotation Yrotation Zrotation
										JOINT RightHandIndex3
										{
											OFFSET -2.894196 0.000000 0.000000
											CHANNELS 3 Xrotation Yrotation Zrotation
											End Site
											{
												OFFSET 1.000603 2.690872 0.366626
											}
										}
									}
								}
								JOINT RightHandMiddle1
								{
									OFFSET -13.776489 0.000000 0.000000
									CHANNELS 3 Xrotation Yrotation Zrotation
									JOINT RightHandMiddle2
									{
										OFFSET -3.438232 0.000000 0.000000
										CHANNELS 3 Xrotation Yrotation Zrotation
										JOINT RightHandMiddle3
										{
											OFFSET -3.691551 0.000000 0.000000
											CHANNELS 3 Xrotation Yrotation Zrotation
											End Site
											{
												OFFSET 1.082298 3.499527 0.457670
											}
										}
									}
								}
								JOINT RightHandRing1
								{
									OFFSET -13.966164 -0.268127 -3.067488
									CHANNELS 3 Xrotation Yrotation Zrotation
									JOINT RightHandRing2
									{
										OFFSET -3.162567 0.000000 0.000000
										CHANNELS 3 Xrotation Yrotation Zrotation
										JOINT RightHandRing3
										{
											OFFSET -3.324348 0.000000 0.000000
											CHANNELS 3 Xrotation Yrotation Zrotation
											End Site
											{
												OFFSET 0.861900 3.184998 0.405154
											}
										}
									}
								}
								JOINT RightHandPinky1
								{
									OFFSET -13.131393 -0.168503 -5.746925
									CHANNELS 3 Xrotation Yrotation Zrotation
									JOINT RightHandPinky2
									{
										OFFSET -2.849182 0.000000 0.000000
										CHANNELS 3 Xrotation Yrotation Zrotation
										JOINT RightHandPinky3
										{
											OFFSET -2.805038 0.000000 0.000000
											CHANNELS 3 Xrotation Yrotation Zrotation
											End Site
											{
												OFFSET 0.882500 2.642609 0.325652
											}
										}
									}
								}
							}
							JOINT Right_Sleeve
							{
								OFFSET -6.592125 -0.646545 0.805568
								CHANNELS 3 Xrotation Yrotation Zrotation
								End Site
								{
									OFFSET 0.000179 20.275787 -0.000000
								}
							}
						}
					}
				}
				JOINT Bind_Right_JacketString
				{
					OFFSET -3.534800 11.969597 7.200700
					CHANNELS 3 Xrotation Yrotation Zrotation
					JOINT Bind_Right_JacketString1
					{
						OFFSET -0.319900 -6.102600 2.794100
						CHANNELS 3 Xrotation Yrotation Zrotation
						End Site
						{
							OFFSET 0.000000 6.719452 0.000000
						}
					}
				}
				JOINT Bind_Left_JacketString
				{
					OFFSET 2.904800 11.969597 7.200700
					CHANNELS 3 Xrotation Yrotation Zrotation
					JOINT Bind_Left_JacketString1
					{
						OFFSET 0.364800 -5.904503 3.186800
						CHANNELS 3 Xrotation Yrotation Zrotation
						End Site
						{
							OFFSET 0.000000 6.719513 0.000000
						}
					}
				}
				JOINT HairE
				{
					OFFSET 5.915200 17.612701 -11.592200
					CHANNELS 3 Xrotation Yrotation Zrotation
					JOINT HairE1
					{
						OFFSET 0.289200 -7.171898 -1.284500
						CHANNELS 3 Xrotation Yrotation Zrotation
						End Site
						{
							OFFSET 0.000000 7.291756 0.000000
						}
					}
				}
				JOINT HairF
				{
					OFFSET -0.864800 17.612701 -11.592200
					CHANNELS 3 Xrotation Yrotation Zrotation
					JOINT HairF1
					{
						OFFSET 0.000000 -14.087097 -2.127501
						CHANNELS 3 Xrotation Yrotation Zrotation
						End Site
						{
							OFFSET 0.000000 14.246841 0.000000
						}
					}
				}
				JOINT HairG
				{
					OFFSET -8.087700 17.612701 -11.592200
					CHANNELS 3 Xrotation Yrotation Zrotation
					JOINT HairG1
					{
						OFFSET -0.293600 -6.081398 -0.910100
						CHANNELS 3 Xrotation Yrotation Zrotation
						End Site
						{
							OFFSET 0.000000 6.156120 0.000000
						}
					}
				}
			}
		}
	}
	JOINT Pouch
	{
		OFFSET 0.000000 4.394501 10.847300
		CHANNELS 3 Xrotation Yrotation Zrotation
		End Site
		{
			OFFSET 0.000000 21.880577 0.000000
		}
	}
	JOINT Bag
	{
		OFFSET -13.229000 4.813004 -0.593300
		CHANNELS 3 Xrotation Yrotation Zrotation
		End Site
		{
			OFFSET 0.000000 21.880577 0.000000
		}
	}
	JOINT OccupyGuyFacialAnim_Joint
	{
		OFFSET 1.000000 -70.206398 -1.655000
		CHANNELS 3 Xrotation Yrotation Zrotation
		End Site
		{
			OFFSET 0.000000 21.880577 0.000000
		}
	}
}
MOTION
Frames: 4
Frame Time: 0.016667
-1.002998 61.113220 0.954141 -5.398735 -46.240538 -0.076297 -0.000000 -0.000000 0.000000 -30.005277 8.764958 16.917248 59.651505 -6.803147 4.274560 -27.272507 -7.853981 -13.834108 0.000000 -0.000000 0.000000 -0.000003 -0.000000 0.000000 -23.366612 -12.095341 -27.277846 58.857734 -8.982209 -7.733436 -28.147160 -6.820241 22.141520 0.000000 0.000000 -0.000000 -0.000001 0.000001 0.000000 9.472852 7.172805 -1.781854 2.187716 0.989894 -0.915630 2.202828 0.982773 -0.894153 0.084652 13.220559 4.538680 8.920926 20.138147 -4.130235 0.000001 0.000000 0.000000 0.000001 0.000000 0.000000 0.000001 0.000000 0.000001 0.000001 0.000000 -0.000001 0.000001 0.000000 0.000000 0.000001 0.000000 -0.000001 0.000001 0.000000 0.000000 0.000001 0.000000 0.000000 0.000001 0.000000 0.000000 1.117178 3.546350 -8.633309 -53.487006 4.935503 -51.502987 -0.000079 -106.358073 -0.000082 1.988612 -7.706139 -15.869243 -6.141197 -11.690807 -6.761700 9.914142 42.595512 3.409857 0.000001 0.000001 -0.000001 0.255317 3.378229 -45.814351 5.654076 5.847736 -88.067435 0.000001 0.000002 -0.000001 -0.461465 3.841591 -39.722679 6.450738 5.820346 -95.892844 0.000001 0.000001 -0.000003 0.469723 4.966803 -39.799447 8.181049 5.368625 -113.502991 -0.000000 -0.000000 0.000000 -3.762425 9.063699 -45.253818 5.342527 5.829003 -85.005297 -0.000003 -0.000002 -0.000001 -0.000000 -0.000002 0.000000 3.036128 13.027200 -5.371407 -48.713722 27.172822 83.457071 0.000160 105.988287 -0.000156 -8.345360 17.548107 8.775677 -7.341077 13.749668 7.412325 9.855788 -44.489103 -3.903247 0.000002 -0.000001 0.000002 -0.124373 -2.384803 45.108861 4.500571 -4.654522 88.071164 0.000001 0.000000 0.000005 -0.761622 -2.932918 39.031061 5.133886 -4.632756 95.881649 0.000000 0.000001 -0.000001 0.154756 -4.068803 39.122668 6.509735 -4.273610 113.462870 0.000000 0.000002 0.000000 -4.198878 -8.025526 44.637769 4.252918 -4.639642 85.014818 0.000001 0.000002 -0.000003 0.000001 -0.000000 -0.000001 -0.000000 0.000000 -0.000000 -0.000000 0.000001 -0.000000 -0.000000 0.000000 0.000000 -0.000000 0.000000 0.000000 -0.000000 0.000000 -0.000000 -0.000000 0.000001 0.000000 -0.000000 0.000000 0.000000 -0.000000 0.000000 0.000000 -0.000000 0.000000 -0.000000 -0.000000 0.000001 0.000000 -0.000000 -0.000000 0.000000 -0.000000 -0.000000 0.000000 -0.000000 -0.000000 0.000000 
-1.075338 61.002090 1.405929 -5.368640 -46.061628 0.133817 0.000000 0.000001 -0.000000 -29.943638 8.931537 16.717397 60.264965 -6.591200 4.074872 -27.963259 -8.333591 -13.598561 -0.000000 -0.000002 -0.000000 -0.000001 0.000001 0.000001 -23.372083 -12.107135 -27.847818 59.307441 -9.389751 -7.773330 -28.513236 -6.621041 21.797674 0.000000 -0.000000 -0.000001 0.000001 0.000003 0.000000 9.628819 7.213323 -1.956292 2.382866 1.109469 -1.073440 2.401566 1.100697 -1.045857 -0.057995 13.152748 4.536975 8.891160 19.766185 -3.891123 -0.000000 0.000000 0.000001 -0.000000 0.000000 0.000001 -0.000000 0.000000 0.000001 -0.000000 0.000000 -0.000000 -0.000000 0.000000 -0.000000 -0.000000 0.000000 -0.000000 -0.000000 0.000000 -0.000000 -0.000000 0.000000 0.000001 -0.000000 0.000000 0.000001 1.183350 3.599423 -8.974603 -53.425514 4.522203 -51.883743 -0.000004 -105.213825 0.000003 2.694941 -6.785467 -16.625754 -6.141198 -11.690808 -6.761697 9.914142 42.595512 3.409859 -0.000003 -0.000003 -0.000002 0.255318 3.378229 -45.814351 5.654076 5.847737 -88.067435 0.000001 0.000001 0.000000 -0.461465 3.841593 -39.722686 6.450741 5.820348 -95.892837 0.000003 0.000003 -0.000001 0.469726 4.966804 -39.799447 8.181049 5.368626 -113.502984 -0.000000 0.000000 -0.000001 -3.762422 9.063703 -45.253818 5.342529 5.829004 -85.005290 0.000002 0.000000 -0.000001 0.000000 -0.000001 -0.000000 3.025168 12.911340 -5.539060 -48.147926 26.895823 84.263552 -0.000006 105.577205 0.000010 -8.085360 17.722246 8.888090 -7.341079 13.749667 7.412322 9.855796 -44.489107 -3.903252 0.000001 -0.000006 0.000003 -0.124372 -2.384804 45.108864 4.500574 -4.654522 88.071157 -0.000002 -0.000001 0.000002 -0.761621 -2.932917 39.031058 5.133883 -4.632757 95.881642 0.000002 -0.000001 0.000002 0.154756 -4.068800 39.122675 6.509740 -4.273612 113.462870 -0.000000 -0.000001 -0.000001 -4.198875 -8.025527 44.637772 4.252920 -4.639642 85.014825 -0.000003 0.000002 0.000002 0.000002 0.000002 0.000002 0.000001 -0.000002 0.000001 0.000001 0.000005 -0.000001 0.000001 -0.000002 0.000001 0.000001 -0.000002 0.000001 0.000001 -0.000002 0.000001 0.000001 0.000005 -0.000001 0.000001 -0.000002 0.000001 0.000001 -0.000002 0.000001 0.000001 -0.000002 0.000001 0.000001 0.000005 -0.000001 0.000000 0.000001 -0.000000 0.000000 0.000001 -0.000000 0.000000 0.000001 -0.000000 
-1.152545 60.995674 1.815933 -5.135189 -45.719681 0.471576 -0.000000 0.000002 -0.000000 -29.900123 9.126930 16.537951 60.440781 -6.407426 3.838172 -28.377534 -8.984415 -13.375067 0.000000 -0.000002 0.000000 0.000001 -0.000000 -0.000000 -23.554590 -12.210053 -28.325163 59.785766 -10.078696 -7.728246 -28.835372 -6.293894 20.805702 -0.000000 0.000001 0.000001 0.000001 0.000000 -0.000000 9.742747 7.252713 -2.097126 2.523092 1.222475 -1.220268 2.544998 1.213388 -1.187300 -0.119665 13.073308 4.516065 8.975801 19.311226 -3.677646 0.000001 0.000000 0.000000 0.000001 0.000000 0.000000 0.000001 0.000000 0.000001 0.000001 0.000000 -0.000000 0.000001 0.000000 0.000000 0.000001 0.000000 -0.000000 0.000001 0.000000 0.000000 0.000001 0.000000 0.000000 0.000001 0.000000 0.000000 1.271896 3.450424 -9.352721 -53.737712 4.019012 -51.821031 0.000130 -104.376198 0.000130 3.364583 -5.538212 -17.414103 -6.141198 -11.690808 -6.761699 9.914145 42.595505 3.409854 0.000001 -0.000001 -0.000003 0.255315 3.378228 -45.814344 5.654078 5.847736 -88.067435 -0.000001 0.000003 -0.000003 -0.461465 3.841592 -39.722679 6.450741 5.820343 -95.892837 -0.000000 0.000003 -0.000004 0.469725 4.966803 -39.799437 8.181052 5.368623 -113.502991 -0.000000 -0.000001 -0.000003 -3.762423 9.063694 -45.253818 5.342525 5.829003 -85.005297 -0.000000 0.000000 -0.000001 0.000000 -0.000002 0.000003 3.009248 12.882596 -5.845509 -47.901780 26.454245 85.051633 -0.000005 105.041807 -0.000004 -8.061751 17.824024 9.078419 -7.341079 13.749666 7.412326 9.855791 -44.489096 -3.903255 -0.000000 0.000002 0.000001 -0.124373 -2.384804 45.108868 4.500573 -4.654520 88.071164 -0.000001 -0.000002 0.000007 -0.761619 -2.932913 39.031061 5.133885 -4.632759 95.881649 -0.000000 -0.000002 0.000001 0.154757 -4.068798 39.122675 6.509737 -4.273611 113.462863 -0.000001 0.000000 -0.000004 -4.198876 -8.025524 44.637766 4.252918 -4.639642 85.014825 -0.000001 0.000003 -0.000001 -0.000000 -0.000001 -0.000000 0.000000 0.000003 -0.000000 0.000000 0.000004 -0.000001 0.000000 0.000003 -0.000000 0.000000 0.000003 -0.000000 0.000000 0.000003 -0.000000 0.000000 0.000004 -0.000001 0.000000 0.000003 -0.000000 0.000000 0.000003 -0.000000 0.000000 0.000003 -0.000000 0.000000 0.000004 -0.000001 -0.000000 0.000002 -0.000000 -0.000000 0.000002 -0.000000 -0.000000 0.000002 -0.000000 
-1.234620 61.095917 2.173236 -4.689126 -45.241554 0.910844 0.000000 -0.000001 -0.000000 -29.887398 9.323676 16.387821 60.184280 -6.259007 3.593902 -28.512503 -9.737390 -13.177279 -0.000000 -0.000001 -0.000000 0.000001 0.000000 -0.000000 -23.988401 -12.154683 -28.951990 60.429955 -10.288803 -7.599168 -28.128905 -5.972294 20.558091 0.000000 -0.000000 0.000000 -0.000001 -0.000001 -0.000000 9.802452 7.290598 -2.192690 2.594242 1.326384 -1.342158 2.618626 1.318492 -1.304864 -0.089424 12.994037 4.472786 9.137172 18.829717 -3.485250 -0.000001 0.000000 0.000001 -0.000001 0.000000 0.000001 -0.000001 0.000000 0.000001 -0.000001 0.000000 0.000001 -0.000001 0.000000 0.000001 -0.000001 0.000000 0.000001 -0.000001 0.000000 0.000001 -0.000001 0.000000 0.000001 -0.000001 0.000000 0.000001 1.361013 3.142966 -9.684680 -54.368518 3.505232 -51.369911 0.000456 -103.901767 0.000469 3.892648 -4.154469 -18.243930 -6.141197 -11.690808 -6.761697 9.914145 42.595508 3.409855 -0.000002 0.000001 -0.000003 0.255316 3.378233 -45.814348 5.654075 5.847735 -88.067435 -0.000001 0.000002 -0.000002 -0.461465 3.841596 -39.722683 6.450739 5.820344 -95.892837 -0.000003 0.000000 0.000002 0.469726 4.966806 -39.799447 8.181045 5.368627 -113.502998 0.000000 0.000001 0.000000 -3.762424 9.063706 -45.253818 5.342526 5.829003 -85.005283 0.000001 -0.000000 -0.000001 0.000000 -0.000000 -0.000000 2.995734 13.013992 -6.195495 -48.018149 25.955441 85.661979 0.000254 104.429624 -0.000248 -8.242457 17.789050 9.105818 -7.341077 13.749665 7.412328 9.855789 -44.489100 -3.903252 -0.000000 0.000000 0.000003 -0.124374 -2.384807 45.108864 4.500570 -4.654521 88.071157 -0.000002 0.000001 0.000006 -0.761618 -2.932917 39.031061 5.133884 -4.632759 95.881642 0.000003 -0.000003 -0.000001 0.154758 -4.068800 39.122675 6.509736 -4.273612 113.462870 0.000000 0.000001 -0.000004 -4.198876 -8.025527 44.637766 4.252916 -4.639643 85.014825 -0.000002 0.000002 0.000001 0.000000 -0.000002 0.000000 0.000000 0.000001 -0.000000 0.000000 0.000001 -0.000001 0.000000 0.000001 -0.000000 0.000000 0.000001 -0.000000 0.000000 0.000001 -0.000000 0.000000 0.000001 -0.000000 0.000000 0.000001 -0.000000 0.000000 0.000001 -0.000000 0.000000 0.000001 -0.000000 0.000000 0.000001 -0.000000 0.000000 -0.000001 -0.000000 0.000000 -0.000001 -0.000000 0.000000 -0.000001 -0.000000 
